# xmcd CD Database Entry
#
# Track frame offsets:
# 150
# 18065
# 38170
# 54122
# 101490
# 133567
#
# Disc length: 2287 seconds
#
# Revision: 1
# Processed by: cddbd v1.4b42PL0 Copyright (c) Steve Scherf et al.
# Submitted via: tcd 2.0b
#
DISCID=3b08ed06
DTITLE=Pleasant Grove - Pleasant Grove
DYEAR=1900
DGENRE=
TTITLE0=solid system
TTITLE1=wide open
TTITLE2=demonic
TTITLE3=nothing this beautiful
TTITLE4=reset the code
TTITLE5=the arrival
EXTD=
EXTT0=
EXTT1=
EXTT2=
EXTT3=
EXTT4=
EXTT5=
PLAYORDER=
